<svg height="512pt" viewBox="0 0 512 512" width="512pt" xmlns="http://www.w3.org/2000/svg"><path d="m512 256c0 141.386719-114.613281 256-256 256s-256-114.613281-256-256 114.613281-256 256-256 256 114.613281 256 256zm0 0" fill="#ffce00"/><path d="m511.089844 277.539062-87.019532-87.019531-4.875 4.226563-31.152343-31.148438-25.636719 7.011719-87.199219-87.199219-3.65625 77.207032-147.59375 2.976562 103.449219 103.449219-121.261719 104.976562 139.761719 139.765625c3.351562.128906 6.710938.214844 10.09375.214844 134.128906 0 244.148438-103.15625 255.089844-234.460938zm0 0" fill="#ffa300"/><path d="m63.921875 261.855469c0-106.082031 85.996094-101.375 192.078125-101.375s192.078125-4.707031 192.078125 101.375-85.996094 166.734375-192.078125 166.734375-192.078125-60.652344-192.078125-166.734375zm0 0" fill="#ff583e"/><path d="m256 160.480469c-.136719 0-.269531 0-.40625 0v268.105469c.136719 0 .269531.003906.40625.003906 106.082031 0 192.078125-60.652344 192.078125-166.734375 0-106.078125-85.996094-101.375-192.078125-101.375zm0 0" fill="#f92814"/><path d="m388.042969 163.597656-112.835938-19.757812v-60.429688h-38.414062v60.429688c-28.050781 4.910156-112.835938 19.753906-112.835938 19.753906l58.488281 21.792969-48.886718 38.226562 86.429687-11.523437 35.605469 66.910156 36.417969-66.90625 86.429687 11.523438-48.886718-38.226563zm0 0" fill="#079e59"/><path d="m388.042969 163.597656-112.835938-19.757812v-60.429688h-19.613281v195.621094-.03125l36.417969-66.90625 86.429687 11.519531-48.886718-38.222656zm0 0" fill="#085b2c"/></svg>